PathFileType	4	(X/Y/Z)	./resultDataOpenSim/trcMotMarkerGrf/sub09/qtm-02-06.trc
DataRate	CameraRate	NumFrames	NumMarkers	Units	OrigDataRate	OrigDataStartFrame	OrigNumFrames
250.000000	250.000000	13	24	m	250.000000	304	485
Frame#	Time	L.Toe.Tip			R.Toe.Tip			L.Ankle.Lat			R.Ankle.Lat			L.Ankle.Med			R.Ankle.Med			L.Heel			R.Heel			L.Knee.Lat			R.Knee.Lat			L.Knee.Med			R.Knee.Med			L.Thigh.Upper			R.Thigh.Upper			L.ASIS			R.ASIS			V.Sacral			L.Acromium			R.Acromium			C7			L.Elbow			R.Elbow			L.Wrist.Lat			R.Wrist.Lat
		X1	Y1	Z1	X2	Y2	Z2	X3	Y3	Z3	X4	Y4	Z4	X5	Y5	Z5	X6	Y6	Z6	X7	Y7	Z7	X8	Y8	Z8	X9	Y9	Z9	X10	Y10	Z10	X11	Y11	Z11	X12	Y12	Z12	X13	Y13	Z13	X14	Y14	Z14	X15	Y15	Z15	X16	Y16	Z16	X17	Y17	Z17	X18	Y18	Z18	X19	Y19	Z19	X20	Y20	Z20	X21	Y21	Z21	X22	Y22	Z22	X23	Y23	Z23	X24	Y24	Z24

304	1.212	0.17080515	0.031902874	0.013681495	1.0053821	0.040737287	0.12863723	0.11954535	0.17711427	-0.052096154	0.85676385	0.053318942	0.1668986	0.15826671	0.1725169	0.03788731	0.85968317	0.091814716	0.075313507	0.057889361	0.21283199	-0.0029003405	0.78826167	0.031118266	0.11999546	0.45359956	0.43789854	-0.090958983	0.83877	0.51227784	0.21853196	0.46629217	0.41676822	0.032096187	0.81610011	0.49577924	0.094888076	0.5594864	0.8300392	-0.087778433	0.62390881	0.85485888	0.27965324	0.66918278	0.90889754	-0.044709261	0.68727201	0.93792165	0.19205187	0.510663	0.97517364	0.088009623	0.66440371	1.3763172	-0.075572454	0.63311387	1.3781477	0.25321908	0.58129505	1.4275416	0.084175142	0.58877545	1.0046646	-0.14145607	0.48160689	1.0516185	0.3272865	0.84008662	0.90284413	-0.098798541	0.58083272	0.80476494	0.38466417
305	1.216	0.17430071	0.03471318	0.012986311	1.0055158	0.04059173	0.12839075	0.12748774	0.18213429	-0.051985799	0.85712162	0.05315748	0.16675155	0.1659594	0.1766863	0.038168997	0.8601006	0.091963621	0.075272175	0.066896105	0.21974408	-0.0028543728	0.78831833	0.03117535	0.12002605	0.46565093	0.43652609	-0.091539964	0.84456951	0.51225591	0.21883009	0.47904345	0.41501269	0.03137457	0.82268302	0.49674034	0.094888039	0.56693574	0.82942082	-0.08668108	0.62977655	0.85576548	0.28070967	0.67592082	0.90894352	-0.043760696	0.69399206	0.9389023	0.19319983	0.51685674	0.97539021	0.088242929	0.67128392	1.3768228	-0.075130638	0.64018261	1.3784676	0.25366767	0.5880151	1.4279817	0.084634365	0.59501363	1.0055741	-0.14098205	0.48930798	1.0513999	0.32760874	0.84466025	0.89970165	-0.099044615	0.58949926	0.80486362	0.38484329
306	1.22	0.17815952	0.037758402	0.012239576	1.0056364	0.040471753	0.12812955	0.13583203	0.187194	-0.051817169	0.85734446	0.052969249	0.16662364	0.1738993	0.18089199	0.03863781	0.86055197	0.092012401	0.075165814	0.076260259	0.22664321	-0.0027051484	0.78836525	0.031206526	0.11998493	0.47791784	0.43511909	-0.092020334	0.84999047	0.5121293	0.21918152	0.49160604	0.41349448	0.030994063	0.82890667	0.49727985	0.094918583	0.57433345	0.82880524	-0.085876671	0.63559274	0.8565487	0.28165405	0.6823633	0.90921412	-0.043307185	0.70068275	0.93986021	0.19436196	0.52356647	0.97567282	0.088794653	0.67811928	1.3773492	-0.074698829	0.64722757	1.3788492	0.25409343	0.59467835	1.4284728	0.085058344	0.60124017	1.0065039	-0.14051652	0.49689052	1.0512231	0.32784864	0.8491259	0.89658914	-0.099359807	0.59813907	0.80497299	0.38496514
307	1.224	0.18240311	0.041064502	0.011444533	1.0057469	0.040360622	0.1279547	0.14455125	0.1923212	-0.051601813	0.85735259	0.052804886	0.1666033	0.18212616	0.18514796	0.039212418	0.86096873	0.091977228	0.075040584	0.085952866	0.23350503	-0.0024370278	0.78840274	0.031206031	0.11990467	0.49032956	0.43372791	-0.09232647	0.85513752	0.51191741	0.21953776	0.50403262	0.41221016	0.030855638	0.83475627	0.49747491	0.094960062	0.58170771	0.82821542	-0.085328747	0.64141872	0.85723081	0.2824767	0.68869429	0.90964827	-0.043080326	0.70733426	0.94079317	0.19551086	0.5305154	0.97609896	0.089222619	0.68489714	1.3779027	-0.074280039	0.65422181	1.3792976	0.25448985	0.60127609	1.4290163	0.085445568	0.60744656	1.0074498	-0.1400575	0.5044905	1.0511002	0.32811156	0.85349331	0.89351957	-0.099749186	0.60676746	0.80511209	0.38503341
308	1.228	0.18707094	0.044653124	0.010615506	1.0058321	0.040257003	0.12788197	0.15360233	0.19755477	-0.051340506	0.85720606	0.052697457	0.16669211	0.19069721	0.18948249	0.039772423	0.86131325	0.091906115	0.074940374	0.095935242	0.24031114	-0.002037707	0.78842186	0.031182605	0.11982454	0.50282118	0.43241048	-0.092459915	0.86010075	0.51164026	0.21990086	0.51639398	0.41115627	0.030898291	0.84029678	0.49742806	0.094994794	0.58905198	0.82768362	-0.084914355	0.64730678	0.85785966	0.28319338	0.69501609	0.91018885	-0.042830322	0.71392909	0.94170822	0.19661952	0.53742758	0.97664396	0.089444129	0.69160277	1.3784908	-0.073876562	0.66114375	1.3798231	0.25485519	0.60781521	1.4296357	0.085804378	0.61363312	1.0084103	-0.13960334	0.51221071	1.051052	0.32848193	0.85775931	0.89049276	-0.10020467	0.61539769	0.80530695	0.38505468
309	1.232	0.19221623	0.048527807	0.0097759003	1.0058693	0.040170904	0.12786783	0.16293092	0.20291687	-0.051030055	0.85705693	0.052644125	0.1668187	0.19969503	0.19391814	0.040182624	0.86157956	0.091844612	0.074888008	0.10617665	0.24704247	-0.0014917719	0.78841052	0.031154255	0.11977444	0.51538398	0.43122357	-0.092492316	0.86493258	0.51132166	0.22029875	0.52878555	0.41032268	0.031087317	0.84560614	0.49722968	0.095032884	0.59633114	0.82724746	-0.084497232	0.65329807	0.85848551	0.28383362	0.70136279	0.91078888	-0.042421853	0.72045699	0.94261243	0.19766983	0.54420886	0.97724108	0.089680299	0.69822686	1.3791187	-0.073489323	0.66798464	1.3804357	0.25519445	0.61430688	1.4303397	0.086153049	0.61980064	1.009386	-0.13914817	0.52003709	1.0510933	0.32893894	0.8619039	0.88750173	-0.10071315	0.62404552	0.80557778	0.38503619
310	1.236	0.19787736	0.052662576	0.0089490136	1.0058511	0.040109229	0.12786758	0.17249467	0.20836661	-0.050670343	0.85700008	0.052625235	0.16692989	0.2091585	0.19845238	0.040385303	0.86177863	0.091819122	0.074885806	0.11666517	0.25367423	-0.00080140289	0.78836516	0.031137802	0.11976408	0.52805034	0.43019375	-0.092468403	0.86964683	0.51098747	0.22074172	0.54127925	0.40969513	0.031394322	0.85073485	0.4969457	0.095108954	0.60351928	0.82694281	-0.083992754	0.65941586	0.85914147	0.28442523	0.70764448	0.91141839	-0.041907938	0.72692016	0.94350963	0.19865309	0.55089093	0.97786471	0.090157603	0.70476601	1.3797895	-0.073118632	0.67474589	1.38114	0.2555165	0.62074945	1.4311167	0.086503911	0.62594106	1.0103802	-0.13868147	0.52785223	1.0512208	0.3293898	0.8659094	0.88454506	-0.10126679	0.63273146	0.80593452	0.38498369
311	1.24	0.20405923	0.057003699	0.0081477452	1.0057924	0.040067096	0.12787287	0.1822779	0.213796	-0.05027121	0.85702093	0.05262526	0.16702358	0.21897829	0.20302999	0.040511832	0.86193145	0.091832489	0.074923697	0.12740346	0.2601764	-5.1069847e-06	0.78829354	0.031140597	0.11978142	0.54084261	0.42930818	-0.092367025	0.87423929	0.51065091	0.22121528	0.55383593	0.40926027	0.031797549	0.8557091	0.49661898	0.095253746	0.61061701	0.82679453	-0.083402292	0.66566487	0.85984266	0.28498372	0.71363461	0.91206937	-0.041503612	0.73332805	0.94440203	0.19956523	0.55751109	0.9785558	0.090868925	0.71121673	1.3805041	-0.072762734	0.68142709	1.3819354	0.25582958	0.6271305	1.4319616	0.086852734	0.63203874	1.0113967	-0.13819475	0.53554574	1.0514222	0.32977078	0.86977602	0.8816341	-0.10186556	0.64146886	0.80638035	0.38489686
312	1.244	0.21075346	0.06149517	0.0073733001	1.0057142	0.04003418	0.12790034	0.19229021	0.219094	-0.0498448	0.85705783	0.052630033	0.16710815	0.22895641	0.20755097	0.040811163	0.86206476	0.091869382	0.074986303	0.13839503	0.26651807	0.00084000092	0.7882078	0.031158623	0.11980405	0.5537359	0.42854765	-0.09214639	0.8787128	0.51029614	0.22169527	0.56633742	0.40900109	0.03228644	0.86053335	0.49627508	0.095475014	0.61763547	0.82681653	-0.082782964	0.67203065	0.86059274	0.28550838	0.71912971	0.91274743	-0.041420672	0.73969293	0.94529677	0.20040601	0.56406099	0.97938647	0.091591614	0.7175717	1.381265	-0.0724173	0.6880191	1.3828221	0.25613842	0.63343968	1.4328835	0.087188797	0.63808327	1.0124335	-0.13768086	0.54309555	1.0516887	0.33008118	0.87351344	0.87878958	-0.10251103	0.6502508	0.80691887	0.38476823
313	1.248	0.21797368	0.066105518	0.0066208044	1.0056315	0.040004751	0.12795424	0.20257517	0.22421829	-0.049403189	0.85705974	0.052626988	0.16717841	0.23901757	0.2119445	0.041386558	0.86220379	0.091911222	0.075058055	0.14964161	0.27266237	0.0016950012	0.7881203	0.031183082	0.11981579	0.56666748	0.4279245	-0.091788973	0.88307235	0.50988867	0.22215466	0.57873051	0.40889562	0.032857084	0.86518268	0.49592684	0.095758487	0.62458129	0.82702018	-0.082195809	0.67847741	0.86138749	0.28598765	0.72419772	0.91346118	-0.041705942	0.74602608	0.94620936	0.20117642	0.57051958	0.9803912	0.092156328	0.72382276	1.3820794	-0.072078431	0.69451121	1.3838048	0.25644534	0.63967399	1.4338883	0.08750752	0.64407841	1.0134849	-0.13713182	0.55054524	1.0520167	0.330342	0.87712647	0.8760322	-0.10320503	0.65905598	0.80756062	0.38458917
314	1.252	0.22576407	0.070819737	0.005883906	1.0055582	0.039978577	0.12801302	0.21318976	0.2291985	-0.048958759	0.8570121	0.052611716	0.16722616	0.2492727	0.21622973	0.042077613	0.8623669	0.091950042	0.075126727	0.16114669	0.27855785	0.0025525719	0.78804429	0.031209987	0.11981246	0.57957782	0.42748796	-0.091311254	0.88729194	0.50942025	0.2225754	0.59106458	0.40892827	0.033505736	0.86960356	0.49557659	0.09607894	0.63145766	0.82741708	-0.081678429	0.68495403	0.86221689	0.28641253	0.72926286	0.91423743	-0.042224495	0.75233235	0.94715499	0.20187354	0.57688996	0.98154584	0.092628334	0.72996796	1.3829574	-0.071747891	0.7009008	1.3848897	0.25675135	0.64583561	1.4349691	0.087812382	0.65003354	1.0145552	-0.13654604	0.55792495	1.0524112	0.33055531	0.8806155	0.87337639	-0.10395274	0.66786643	0.80832282	0.38435684
315	1.256	0.23417331	0.07560704	0.0051604551	1.0055115	0.039954847	0.12805298	0.22412023	0.23406433	-0.048497837	0.85694491	0.052583098	0.16724877	0.25987697	0.22048289	0.042620051	0.86256536	0.091988485	0.075184616	0.17288739	0.28417243	0.0034031033	0.78799349	0.031243387	0.11979455	0.59243483	0.42729653	-0.090752786	0.89131065	0.50892813	0.22296552	0.60340722	0.4090938	0.034224821	0.87373474	0.49522277	0.09641685	0.63827538	0.82801436	-0.081240559	0.69140897	0.86306922	0.28678764	0.73489187	0.91514327	-0.042708289	0.75860845	0.94813616	0.20249045	0.58319387	0.98280953	0.09321454	0.73601887	1.3839061	-0.071441211	0.70719335	1.3860768	0.25705368	0.65192748	1.4361144	0.088109739	0.65595181	1.0156586	-0.13593027	0.56522855	1.05289	0.33072174	0.88398404	0.87083146	-0.1047586	0.67667494	0.80922093	0.38407463
316	1.26	0.24322008	0.080404833	0.0044582234	1.0055039	0.0399293	0.12807251	0.23525964	0.23879344	-0.047976585	0.85690641	0.05253669	0.16724883	0.27089121	0.22475475	0.042862664	0.8628044	0.092029663	0.075229193	0.18478372	0.28955576	0.0041521299	0.78797921	0.031290666	0.11976434	0.60522942	0.42738612	-0.090159152	0.8950761	0.50843771	0.22334352	0.61578998	0.40939018	0.035004361	0.87754317	0.49487014	0.096773423	0.64505672	0.82881193	-0.080871625	0.69780034	0.86393758	0.28712971	0.74135912	0.9162583	-0.042789086	0.7648481	0.94914363	0.20302184	0.58944116	0.98414608	0.094036421	0.74200536	1.3849247	-0.071194673	0.71339855	1.3873585	0.25734473	0.65794983	1.4373178	0.088400196	0.6618279	1.0168077	-0.13529105	0.57244648	1.0534769	0.3308695	0.88723854	0.86840293	-0.10561899	0.68547822	0.8102605	0.38374552
